<svg width="37" height="38" viewBox="0 0 37 38" fill="none" xmlns="http://www.w3.org/2000/svg">
<path d="M11 16.8281C11 16.8281 11.5793 22.2355 13.836 24.4921C16.0926 26.7487 21.5 27.3281 21.5 27.3281C21.5 27.3281 16.0926 27.9074 13.836 30.164C11.5793 32.4206 11 37.8281 11 37.8281C11 37.8281 10.4207 32.4206 8.16405 30.164C5.90743 27.9074 0.5 27.3281 0.5 27.3281C0.5 27.3281 5.90743 26.7487 8.16405 24.4921C10.4207 22.2355 11 16.8281 11 16.8281Z" fill="#160211"/>
<path d="M26 7.91403C26 7.91403 26.5793 13.3215 28.836 15.5781C31.0926 17.8347 36.5 18.414 36.5 18.414C36.5 18.414 31.0926 18.9934 28.836 21.25C26.5793 23.5066 26 28.914 26 28.914C26 28.914 25.4207 23.5066 23.164 21.25C20.9074 18.9934 15.5 18.414 15.5 18.414C15.5 18.414 20.9074 17.8347 23.164 15.5781C25.4207 13.3215 26 7.91403 26 7.91403Z" fill="#160211"/>
<path d="M11 0C11 0 11.5793 5.40743 13.836 7.66405C16.0926 9.92066 21.5 10.5 21.5 10.5C21.5 10.5 16.0926 11.0793 13.836 13.336C11.5793 15.5926 11 21 11 21C11 21 10.4207 15.5926 8.16405 13.336C5.90743 11.0793 0.5 10.5 0.5 10.5C0.5 10.5 5.90743 9.92066 8.16405 7.66405C10.4207 5.40743 11 0 11 0Z" fill="#160211"/>
</svg>
